<mxfile host="app.diagrams.net" modified="2023-12-30T06:58:47.370Z" agent="Mozilla/5.0 (Macintosh; Intel Mac OS X 10_15_7) AppleWebKit/537.36 (KHTML, like Gecko) Chrome/120.0.0.0 Safari/537.36" version="22.1.16" etag="QBcGBxkD5IrkZh4e30Iq" type="github">
  <diagram name="第 1 页" id="CH05KZtHkAMlW_S-y4NR">
    <mxGraphModel>
      <root>
        <mxCell id="0" />
        <mxCell id="1" parent="0" />
      </root>
    </mxGraphModel>
  </diagram>
</mxfile>
